<svg xmlns="http://www.w3.org/2000/svg" xmlns:xlink="http://www.w3.org/1999/xlink" version="1.1" width="1000" height="1000" viewBox="0 0 1000 1000" xml:space="preserve">
<desc>Created with Fabric.js 3.5.0</desc>
<defs>
</defs>
<rect x="0" y="0" width="100%" height="100%" fill="#ffffff"></rect>
<g transform="matrix(0.731 0 0 0.7015 527.031 397.9779)" id="958326"  >
<g style="" vector-effect="non-scaling-stroke"   >
		<g transform="matrix(1 0 0 1 76.2763 134.4128)" style="" id="Layer_12"  >
		<text xml:space="preserve" font-family="'BaskOldFace'" font-size="120" font-style="normal" font-weight="normal" style="stroke: none; stroke-width: 1; stroke-dasharray: none; stroke-linecap: butt; stroke-dashoffset: 0; stroke-linejoin: miter; stroke-miterlimit: 4; is-custom-font: none; font-file-url: none; fill: rgb(0,0,0); fill-rule: nonzero; opacity: 1; white-space: pre;" ><tspan x="-474.3867" y="37.6968" >D</tspan><tspan x="-369.75" y="37.6968" >e</tspan><tspan x="-303.668" y="37.6968" >l</tspan><tspan x="-262.6055" y="37.6968" >a</tspan><tspan x="-199.3945" y="37.6968" >w</tspan><tspan x="-113.7422" y="37.6968" >a</tspan><tspan x="-50.5313" y="37.6968" >r</tspan><tspan x="3.1875" y="37.6968" >e</tspan><tspan x="69.2695" y="37.6968" style="white-space: pre; "> </tspan><tspan x="111.2695" y="37.6968" >M</tspan><tspan x="230.2617" y="37.6968" >o</tspan><tspan x="304.3711" y="37.6968" >d</tspan><tspan x="379.2422" y="37.6968" >e</tspan><tspan x="445.3242" y="37.6968" >l</tspan></text>
</g>
		<g transform="matrix(1 0 0 1 223.6284 -24.1289)" id="Layer_13"  >
<linearGradient id="SVGID_18" gradientUnits="userSpaceOnUse" gradientTransform="matrix(-0.9769 0.2136 -0.2136 -0.9769 1961.3572 -1045.9167)"  x1="947.2793" y1="-1069.7402" x2="1668.9141" y2="-1069.7404">
<stop offset="0%" style="stop-color:rgb(150,219,249);stop-opacity: 1"/>
<stop offset="44.83%" style="stop-color:rgb(222,242,253);stop-opacity: 1"/>
<stop offset="100%" style="stop-color:rgb(255,255,255);stop-opacity: 1"/>
</linearGradient>
<path style="stroke: none; stroke-width: 1; stroke-dasharray: none; stroke-linecap: butt; stroke-dashoffset: 0; stroke-linejoin: miter; stroke-miterlimit: 4; is-custom-font: none; font-file-url: none; fill: url(#SVGID_18); fill-rule: nonzero; opacity: 1;"  transform=" translate(-907.6285, -263.8711)" d="M 1088.408 176.971 l 184.229 61.894 c 0 0 -145.157 87.858 -334.425 111.401 c -56.575 7.037 -155.804 -61.76 -335.575 -62.378 c 0 0 -145.787 -18.721 17.073 -4.478 c 114.933 10.052 207.905 -9.894 261.785 -20.518 C 949.861 249.411 1013.33 223.323 1088.408 176.971 z" stroke-linecap="round" />
</g>
		<g transform="matrix(1 0 0 1 -243.8075 -39.2056)" id="Layer_9"  >
<linearGradient id="SVGID_19" gradientUnits="userSpaceOnUse" gradientTransform="matrix(1 0 0 1 0 0)"  x1="63.7109" y1="248.7949" x2="816.6738" y2="248.7949">
<stop offset="0%" style="stop-color:rgb(150,219,249);stop-opacity: 1"/>
<stop offset="30.54%" style="stop-color:rgb(222,242,253);stop-opacity: 1"/>
</linearGradient>
<path style="stroke: none; stroke-width: 1; stroke-dasharray: none; stroke-linecap: butt; stroke-dashoffset: 0; stroke-linejoin: miter; stroke-miterlimit: 4; is-custom-font: none; font-file-url: none; fill: url(#SVGID_19); fill-rule: nonzero; opacity: 1;"  transform=" translate(-440.1925, -248.7944)" d="M 159.707 307.434 L 63.711 186.689 c 0 0 166.682 -51.435 279.736 -16.475 c 288.224 89.129 297.735 128.219 473.227 167.217 c 0 0 -20.291 14.816 -176.352 -33.881 c -110.134 -34.366 -205.222 -34.737 -260.127 -35.866 C 310.528 266.254 242.952 278.185 159.707 307.434 z" stroke-linecap="round" />
</g>
		<g transform="matrix(1 0 0 1 115.4145 -78.0692)" id="Layer_6"  >
<linearGradient id="SVGID_20" gradientUnits="userSpaceOnUse" gradientTransform="matrix(1 0 0 1 0 0)"  x1="417.6909" y1="209.9312" x2="1181.1377" y2="209.9312">
<stop offset="0%" style="stop-color:rgb(255,255,255);stop-opacity: 1"/>
<stop offset="63.55%" style="stop-color:rgb(222,242,253);stop-opacity: 1"/>
<stop offset="100%" style="stop-color:rgb(3,173,226);stop-opacity: 1"/>
</linearGradient>
<path style="stroke: none; stroke-width: 1; stroke-dasharray: none; stroke-linecap: butt; stroke-dashoffset: 0; stroke-linejoin: miter; stroke-miterlimit: 4; is-custom-font: none; font-file-url: none; fill: url(#SVGID_20); fill-rule: nonzero; opacity: 1;"  transform=" translate(-799.4145, -209.9308)" d="M 417.691 116.942 c 116.947 -5.886 273.499 42.611 392.743 88.359 c 119.244 45.748 276.209 90.225 370.704 77.475 c 0 0 -36.733 43.405 -210.725 4.299 c -45.313 -10.185 -271.661 -73.215 -328.483 -98.137 C 599.182 170.189 417.691 116.942 417.691 116.942 z" stroke-linecap="round" />
</g>
		<g transform="matrix(1 0 0 1 24.2835 -55.0563)" id="Layer_5"  >
<linearGradient id="SVGID_21" gradientUnits="userSpaceOnUse" gradientTransform="matrix(1 0 0 1 0 0)"  x1="80.9614" y1="232.9438" x2="1335.6055" y2="232.9438">
<stop offset="0%" style="stop-color:rgb(222,242,253);stop-opacity: 1"/>
<stop offset="100%" style="stop-color:rgb(3,173,226);stop-opacity: 1"/>
</linearGradient>
<path style="stroke: none; stroke-width: 1; stroke-dasharray: none; stroke-linecap: butt; stroke-dashoffset: 0; stroke-linejoin: miter; stroke-miterlimit: 4; is-custom-font: none; font-file-url: none; fill: url(#SVGID_21); fill-rule: nonzero; opacity: 1;"  transform=" translate(-708.2835, -232.9437)" d="M 1335.605 252.686 c -13.456 11.25 -115.451 76.496 -230.195 95.995 s -261.737 3.75 -355.482 -25.499 c -93.745 -29.248 -531.722 -215.238 -668.966 -174.741 c 0 0 148.286 -60.747 343.754 -32.249 c 0 0 147.459 5.129 295.962 64.497 c 128.254 51.272 193.488 89.245 317.982 106.386 C 1148.255 302.165 1335.605 252.686 1335.605 252.686 z" stroke-linecap="round" />
</g>
		<g transform="matrix(1 0 0 1 -211.0224 -125.1736)" id="Layer_5"  >
<path style="stroke: none; stroke-width: 1; stroke-dasharray: none; stroke-linecap: butt; stroke-dashoffset: 0; stroke-linejoin: miter; stroke-miterlimit: 4; is-custom-font: none; font-file-url: none; fill: rgb(255,255,255); fill-rule: nonzero; opacity: 1;"  transform=" translate(-472.9777, -162.8264)" d="M 783.638 215.305 c -28.5 7.083 -68.503 12.449 -88 12.083 c -106.25 -2 -299.188 -85.123 -367.188 -89.446 s -108.812 -16.554 -157.312 -5.054 s 115.06 -46.444 197.06 -32.444 s 162.44 53.081 200.44 69.762 s 100.839 41.346 132.25 46.432 C 753.388 225.137 783.638 215.305 783.638 215.305 z" stroke-linecap="round" />
</g>
		<g transform="matrix(1 0 0 1 367.2979 -56.6898)" id="Layer_4"  >
<linearGradient id="SVGID_22" gradientUnits="userSpaceOnUse" gradientTransform="matrix(1 0 0 1 0 0)"  x1="809.957" y1="231.3101" x2="1292.6377" y2="231.3101">
<stop offset="0%" style="stop-color:rgb(32,195,243);stop-opacity: 1"/>
<stop offset="64.03999999999999%" style="stop-color:rgb(0,51,102);stop-opacity: 1"/>
</linearGradient>
<path style="stroke: none; stroke-width: 1; stroke-dasharray: none; stroke-linecap: butt; stroke-dashoffset: 0; stroke-linejoin: miter; stroke-miterlimit: 4; is-custom-font: none; font-file-url: none; fill: url(#SVGID_22); fill-rule: nonzero; opacity: 1;"  transform=" translate(-1051.2978, -231.3102)" d="M 1292.638 158.037 c 0 0 -65.001 5.85 -177 55.253 c -46.622 20.564 -105 42.259 -156.5 60.759 s -125.5 29 -146 27.5 s 61.849 12.729 139.5 -10 c 111.172 -32.539 173.833 -66.397 215.667 -84.995 C 1249.543 170.438 1292.638 158.037 1292.638 158.037 z" stroke-linecap="round" />
</g>
		<g transform="matrix(1 0 0 1 1.888 -49.1356)" id="Layer_8"  >
<linearGradient id="SVGID_23" gradientUnits="userSpaceOnUse" gradientTransform="matrix(1 0 0 1 0 0)"  x1="190.6377" y1="238.8643" x2="1181.1377" y2="238.8643">
<stop offset="22.17%" style="stop-color:rgb(255,255,255);stop-opacity: 1"/>
<stop offset="100%" style="stop-color:rgb(185,229,251);stop-opacity: 1"/>
</linearGradient>
<path style="stroke: none; stroke-width: 1; stroke-dasharray: none; stroke-linecap: butt; stroke-dashoffset: 0; stroke-linejoin: miter; stroke-miterlimit: 4; is-custom-font: none; font-file-url: none; fill: url(#SVGID_23); fill-rule: nonzero; opacity: 1;"  transform=" translate(-685.888, -238.8644)" d="M 1181.138 301.387 c -78.5 26.5 -131.5 26.5 -183.5 24.5 s -191.5 -31.32 -325.5 -83.32 c -134 -52 -368 -150.18 -481.5 -104.68 c 0 0 104.572 11.227 217.5 44 s 285.862 103.756 375.5 130.5 c 131.5 39.234 210.006 39.805 229.5 39 C 1130.423 346.549 1181.138 301.387 1181.138 301.387 z" stroke-linecap="round" />
</g>
		<g transform="matrix(1 0 0 1 157.422 -77.2609)" id="Layer_3"  >
<linearGradient id="SVGID_24" gradientUnits="userSpaceOnUse" gradientTransform="matrix(1 0 0 1 0 0)"  x1="440.1924" y1="210.7388" x2="1242.6523" y2="210.7388">
<stop offset="0%" style="stop-color:rgb(32,195,243);stop-opacity: 1"/>
<stop offset="51.72%" style="stop-color:rgb(25,92,140);stop-opacity: 1"/>
<stop offset="84.73%" style="stop-color:rgb(0,51,102);stop-opacity: 1"/>
</linearGradient>
<path style="stroke: none; stroke-width: 1; stroke-dasharray: none; stroke-linecap: butt; stroke-dashoffset: 0; stroke-linejoin: miter; stroke-miterlimit: 4; is-custom-font: none; font-file-url: none; fill: url(#SVGID_24); fill-rule: nonzero; opacity: 1;"  transform=" translate(-841.422, -210.7391)" d="M 1242.652 126.961 c -56.996 6.48 -265.929 89.628 -320.983 106.976 c -241.031 75.95 -461.228 9.673 -481.477 -6.531 c 0 0 138.374 71.3 303.445 66.917 c 70 -1.858 148.5 -15.435 263.557 -66.917 C 1125.235 174.588 1242.652 126.961 1242.652 126.961 z" stroke-linecap="round" />
</g>
		<g transform="matrix(1 0 0 1 -223.566 -100.4602)" id="Layer_2"  >
<linearGradient id="SVGID_25" gradientUnits="userSpaceOnUse" gradientTransform="matrix(1 0 0 1 0 0)"  x1="44.9463" y1="187.54" x2="875.9219" y2="187.54">
<stop offset="0%" style="stop-color:rgb(0,51,102);stop-opacity: 1"/>
<stop offset="16.75%" style="stop-color:rgb(25,92,140);stop-opacity: 1"/>
<stop offset="100%" style="stop-color:rgb(32,195,243);stop-opacity: 1"/>
</linearGradient>
<path style="stroke: none; stroke-width: 1; stroke-dasharray: none; stroke-linecap: butt; stroke-dashoffset: 0; stroke-linejoin: miter; stroke-miterlimit: 4; is-custom-font: none; font-file-url: none; fill: url(#SVGID_25); fill-rule: nonzero; opacity: 1;"  transform=" translate(-460.434, -187.5398)" d="M 44.946 154.282 c 90.827 -32.999 207.365 -66.362 318.188 -21.494 c 80.875 32.743 256.365 104.74 344.861 106.989 c 47.728 1.214 85.431 14.836 167.927 -0.913 c 0 0 -106.288 31.457 -216.284 24.023 c -153.743 -10.391 -191.756 -26.752 -314 -74 C 223.25 141.584 44.946 154.282 44.946 154.282 z" stroke-linecap="round" />
</g>
		<g transform="matrix(1 0 0 1 -199.5285 -82.2035)" id="Layer_10"  >
<path style="stroke: none; stroke-width: 1; stroke-dasharray: none; stroke-linecap: butt; stroke-dashoffset: 0; stroke-linejoin: miter; stroke-miterlimit: 4; is-custom-font: none; font-file-url: none; fill: rgb(255,255,255); fill-rule: nonzero; opacity: 1;"  transform=" translate(-484.4715, -205.7965)" d="M 221.638 152.898 c 14.213 0.327 60.791 3.876 108 13.031 c 29.452 5.712 61.401 15.695 79.116 21.61 c 96.884 32.347 189.727 56.991 233.68 62.169 c 51.681 6.089 91.871 -1.322 104.871 -3.322 c 0 0 -32.171 14.594 -94.167 12 c -46.281 -1.937 -100.543 -12.702 -144.706 -24.212 c -34.037 -8.871 -61.556 -19.535 -75.834 -24.243 c -30.46 -10.044 -64.955 -24.309 -90.021 -31.828 C 270.063 156.35 221.638 152.898 221.638 152.898 z" stroke-linecap="round" />
</g>
</g>
</g>
<g transform="matrix(8.402 0 0 2.2922 592.3414 509.7825)" id="532260"  >
<path style="stroke: none; stroke-width: 1; stroke-dasharray: none; stroke-linecap: butt; stroke-dashoffset: 0; stroke-linejoin: miter; stroke-miterlimit: 4; is-custom-font: none; font-file-url: none; fill: rgb(255,255,255); fill-rule: nonzero; opacity: 1;" vector-effect="non-scaling-stroke"  transform=" translate(-43.5, -25)" d="M 87 0 H 0 V 50 H 87 V 0 Z" stroke-linecap="round" />
</g>
<g transform="matrix(1 0 0 1 327.0356 425.7373)" style="" id="646294"  >
		<text xml:space="preserve" font-family="Roboto" font-size="130" font-weight="bold" style="stroke: none; stroke-width: 0; stroke-dasharray: none; stroke-linecap: butt; stroke-dashoffset: 0; stroke-linejoin: miter; stroke-miterlimit: 4; is-custom-font: none; font-file-url: none; fill: rgb(2,101,131); fill-rule: nonzero; opacity: 1; white-space: pre;" ><tspan x="-216.8118" y="40.8382" >E</tspan><tspan x="-143.5568" y="40.8382" >S</tspan><tspan x="-63.5098" y="40.8382" >T</tspan><tspan x="15.2676" y="40.8382" >C</tspan><tspan x="100.4562" y="40.8382" >P</tspan><tspan x="184.4388" y="40.8382" style="white-space: pre; "> </tspan></text>
</g>
</svg>